<?xml version="1.0" encoding="UTF-8"?>
<svg width="30px" height="30px" viewBox="0 0 30 30" version="1.1" xmlns="http://www.w3.org/2000/svg" xmlns:xlink="http://www.w3.org/1999/xlink">
    <title>asset_history_slice</title>
    <defs>
        <filter id="filter-1">
            <feColorMatrix in="SourceGraphic" type="matrix" values="0 0 0 0 0.133333 0 0 0 0 0.133333 0 0 0 0 0.133333 0 0 0 1.000000 0"></feColorMatrix>
        </filter>
    </defs>
    <g id="页面-1" stroke="none" stroke-width="1" fill="none" fill-rule="evenodd">
        <g id="Asset-History" transform="translate(-884.000000, -762.000000)" filter="url(#filter-1)">
            <g transform="translate(887.000000, 763.000000)">
                <ellipse id="椭圆形" fill="#D8D8D8" cx="11.5" cy="5" rx="11.5" ry="5"></ellipse>
                <text id="$" font-family="PingFang-SC-Heavy, PingFang SC" font-size="14" font-weight="600" fill="#FFFFFF">
                    <tspan x="8" y="22">$</tspan>
                </text>
                <path d="M0.5398258,22.8516853 C2.95240784,24.9505618 6.77349906,26 12.0030995,26 C17.2326999,26 20.8983334,24.6666667 23,22" id="路径" stroke="#979797" stroke-width="2"></path>
                <path d="M17,20.986561 C19.3112782,21.1293809 21.3112782,20.1338606 23,18" id="路径-2" stroke="#979797" stroke-width="2"></path>
                <path d="M0,20.986561 C2.31127819,21.1293809 4.31127819,20.1338606 6,18" id="路径-2备份-3" stroke="#979797" stroke-width="2" transform="translate(3.000000, 19.500000) scale(-1, 1) translate(-3.000000, -19.500000) "></path>
                <path d="M0,16.986561 C2.31127819,17.1293809 4.31127819,16.1338606 6,14" id="路径-2备份-6" stroke="#979797" stroke-width="2" transform="translate(3.000000, 15.500000) scale(-1, 1) translate(-3.000000, -15.500000) "></path>
                <path d="M0,12.986561 C2.31127819,13.1293809 4.31127819,12.1338606 6,10" id="路径-2备份-7" stroke="#979797" stroke-width="2" transform="translate(3.000000, 11.500000) scale(-1, 1) translate(-3.000000, -11.500000) "></path>
                <path d="M17,16.986561 C19.3112782,17.1293809 21.3112782,16.1338606 23,14" id="路径-2备份" stroke="#979797" stroke-width="2"></path>
                <path d="M17,12.986561 C19.3112782,13.1293809 21.3112782,12.1338606 23,10" id="路径-2备份-2" stroke="#979797" stroke-width="2"></path>
            </g>
        </g>
    </g>
</svg>